<mxfile host="app.diagrams.net" modified="2020-11-09T10:55:36.842Z" agent="5.0 (Windows NT 10.0; Win64; x64) AppleWebKit/537.36 (KHTML, like Gecko) Brave Chrome/84.0.4147.89 Safari/537.36" etag="hZjZAmAL-PvnVGHwETJq" version="13.7.3" type="github">
  <diagram id="eHoEbUuEoW4DIHzGxfbR" name="Page-1">
    <mxGraphModel dx="1065" dy="463" grid="1" gridSize="10" guides="1" tooltips="1" connect="1" arrows="1" fold="1" page="1" pageScale="1" pageWidth="827" pageHeight="1169" math="0" shadow="0">
      <root>
        <mxCell id="0" />
        <mxCell id="1" parent="0" />
        <mxCell id="2s5UnlFdTGd1YLJNPPAg-7" style="edgeStyle=orthogonalEdgeStyle;rounded=0;orthogonalLoop=1;jettySize=auto;html=1;" edge="1" parent="1" source="2s5UnlFdTGd1YLJNPPAg-2" target="2s5UnlFdTGd1YLJNPPAg-3">
          <mxGeometry relative="1" as="geometry" />
        </mxCell>
        <mxCell id="2s5UnlFdTGd1YLJNPPAg-15" value="Loading&lt;br&gt;" style="edgeLabel;html=1;align=center;verticalAlign=middle;resizable=0;points=[];" vertex="1" connectable="0" parent="2s5UnlFdTGd1YLJNPPAg-7">
          <mxGeometry x="-0.2115" y="3" relative="1" as="geometry">
            <mxPoint as="offset" />
          </mxGeometry>
        </mxCell>
        <mxCell id="2s5UnlFdTGd1YLJNPPAg-8" style="edgeStyle=orthogonalEdgeStyle;rounded=0;orthogonalLoop=1;jettySize=auto;html=1;entryX=0;entryY=0.5;entryDx=0;entryDy=0;" edge="1" parent="1" source="2s5UnlFdTGd1YLJNPPAg-2" target="2s5UnlFdTGd1YLJNPPAg-4">
          <mxGeometry relative="1" as="geometry" />
        </mxCell>
        <mxCell id="2s5UnlFdTGd1YLJNPPAg-17" value="Loading" style="edgeLabel;html=1;align=center;verticalAlign=middle;resizable=0;points=[];" vertex="1" connectable="0" parent="2s5UnlFdTGd1YLJNPPAg-8">
          <mxGeometry x="0.1856" y="-1" relative="1" as="geometry">
            <mxPoint as="offset" />
          </mxGeometry>
        </mxCell>
        <mxCell id="2s5UnlFdTGd1YLJNPPAg-2" value="&lt;font style=&quot;font-size: 18px&quot;&gt;Login Page&lt;/font&gt;" style="rounded=0;whiteSpace=wrap;html=1;" vertex="1" parent="1">
          <mxGeometry x="20" y="170" width="120" height="60" as="geometry" />
        </mxCell>
        <mxCell id="2s5UnlFdTGd1YLJNPPAg-9" style="edgeStyle=orthogonalEdgeStyle;rounded=0;orthogonalLoop=1;jettySize=auto;html=1;" edge="1" parent="1" source="2s5UnlFdTGd1YLJNPPAg-3" target="2s5UnlFdTGd1YLJNPPAg-5">
          <mxGeometry relative="1" as="geometry" />
        </mxCell>
        <mxCell id="2s5UnlFdTGd1YLJNPPAg-3" value="&lt;font style=&quot;font-size: 18px&quot;&gt;Admin Feed&lt;/font&gt;" style="rounded=0;whiteSpace=wrap;html=1;" vertex="1" parent="1">
          <mxGeometry x="200" y="120" width="120" height="60" as="geometry" />
        </mxCell>
        <mxCell id="2s5UnlFdTGd1YLJNPPAg-10" style="edgeStyle=orthogonalEdgeStyle;rounded=0;orthogonalLoop=1;jettySize=auto;html=1;" edge="1" parent="1" source="2s5UnlFdTGd1YLJNPPAg-4" target="2s5UnlFdTGd1YLJNPPAg-6">
          <mxGeometry relative="1" as="geometry" />
        </mxCell>
        <mxCell id="2s5UnlFdTGd1YLJNPPAg-4" value="&lt;font style=&quot;font-size: 18px&quot;&gt;Staff Feed&lt;/font&gt;" style="rounded=0;whiteSpace=wrap;html=1;" vertex="1" parent="1">
          <mxGeometry x="200" y="220" width="120" height="60" as="geometry" />
        </mxCell>
        <mxCell id="2s5UnlFdTGd1YLJNPPAg-5" value="&lt;font style=&quot;font-size: 18px&quot;&gt;Admin Panel&lt;/font&gt;" style="rounded=0;whiteSpace=wrap;html=1;" vertex="1" parent="1">
          <mxGeometry x="360" y="120" width="120" height="60" as="geometry" />
        </mxCell>
        <mxCell id="2s5UnlFdTGd1YLJNPPAg-14" style="edgeStyle=orthogonalEdgeStyle;rounded=0;orthogonalLoop=1;jettySize=auto;html=1;" edge="1" parent="1" source="2s5UnlFdTGd1YLJNPPAg-6" target="2s5UnlFdTGd1YLJNPPAg-13">
          <mxGeometry relative="1" as="geometry" />
        </mxCell>
        <mxCell id="2s5UnlFdTGd1YLJNPPAg-6" value="&lt;font style=&quot;font-size: 18px&quot;&gt;Staff&#39;s Page&lt;/font&gt;" style="rounded=0;whiteSpace=wrap;html=1;" vertex="1" parent="1">
          <mxGeometry x="360" y="220" width="120" height="60" as="geometry" />
        </mxCell>
        <mxCell id="2s5UnlFdTGd1YLJNPPAg-12" value="&lt;span style=&quot;font-size: 18px&quot;&gt;404 Screen&lt;/span&gt;" style="whiteSpace=wrap;html=1;fillColor=#FFF4C3;" vertex="1" parent="1">
          <mxGeometry x="680" y="170" width="120" height="60" as="geometry" />
        </mxCell>
        <mxCell id="2s5UnlFdTGd1YLJNPPAg-13" value="&lt;span style=&quot;font-size: 18px&quot;&gt;Purchase Screen&lt;/span&gt;" style="whiteSpace=wrap;html=1;" vertex="1" parent="1">
          <mxGeometry x="520" y="220" width="120" height="60" as="geometry" />
        </mxCell>
      </root>
    </mxGraphModel>
  </diagram>
</mxfile>
